<?xml version="1.0" encoding="UTF-8"?>
<!DOCTYPE svg PUBLIC "-//W3C//DTD SVG 1.1//EN" "http://www.w3.org/Graphics/SVG/1.1/DTD/svg11.dtd">
<svg xmlns="http://www.w3.org/2000/svg" version="1.1" width="305px" height="250px" style="shape-rendering:geometricPrecision; text-rendering:geometricPrecision; image-rendering:optimizeQuality; fill-rule:evenodd; clip-rule:evenodd" xmlns:xlink="http://www.w3.org/1999/xlink">
<g><path style="opacity:1" fill="#2986fa" d="M 266.5,7.5 C 267.833,7.5 269.167,7.5 270.5,7.5C 270.738,9.40435 271.738,10.7377 273.5,11.5C 273.738,13.4044 274.738,14.7377 276.5,15.5C 276.738,17.4044 277.738,18.7377 279.5,19.5C 279.738,21.4044 280.738,22.7377 282.5,23.5C 282.738,25.4044 283.738,26.7377 285.5,27.5C 285.738,29.4044 286.738,30.7377 288.5,31.5C 288.738,33.4044 289.738,34.7377 291.5,35.5C 291.738,37.4044 292.738,38.7377 294.5,39.5C 295.08,41.7488 296.413,43.4154 298.5,44.5C 298.539,45.5832 298.873,46.5832 299.5,47.5C 295.555,48.4909 291.555,48.8242 287.5,48.5C 286.993,52.8595 286.327,57.1928 285.5,61.5C 275.908,97.2758 265.908,132.942 255.5,168.5C 254.883,168.611 254.383,168.944 254,169.5C 251.848,176.774 250.015,184.108 248.5,191.5C 248.5,191.833 248.5,192.167 248.5,192.5C 246.926,194.102 246.259,196.102 246.5,198.5C 245.076,200.515 244.41,202.848 244.5,205.5C 244.5,205.833 244.5,206.167 244.5,206.5C 242.926,208.102 242.259,210.102 242.5,212.5C 242.5,212.833 242.5,213.167 242.5,213.5C 240.926,215.102 240.259,217.102 240.5,219.5C 238.673,228.146 236.34,236.646 233.5,245C 217.156,245.833 200.823,245.666 184.5,244.5C 183.873,243.583 183.539,242.583 183.5,241.5C 183.59,238.848 182.924,236.515 181.5,234.5C 179.899,231.45 178.899,228.116 178.5,224.5C 178.59,221.848 177.924,219.515 176.5,217.5C 176.59,214.848 175.924,212.515 174.5,210.5C 173.076,208.485 172.41,206.152 172.5,203.5C 172.472,200.084 171.472,197.084 169.5,194.5C 169.5,194.167 169.5,193.833 169.5,193.5C 169.59,190.848 168.924,188.515 167.5,186.5C 166.596,185.791 166.263,184.791 166.5,183.5C 165.742,180.648 165.742,177.981 166.5,175.5C 175.64,191.104 184.807,206.77 194,222.5C 199.232,207.093 203.399,191.426 206.5,175.5C 207.167,173.833 207.833,172.167 208.5,170.5C 210.26,166.453 211.26,162.12 211.5,157.5C 212.898,149.24 214.898,141.24 217.5,133.5C 219.593,128.122 220.927,122.455 221.5,116.5C 222.565,109.573 224.232,102.906 226.5,96.5C 227.913,93.7814 228.58,90.7814 228.5,87.5C 229.232,81.9063 230.565,76.5729 232.5,71.5C 234.26,67.4535 235.26,63.1201 235.5,58.5C 235.565,55.5718 236.232,52.9052 237.5,50.5C 238.404,49.791 238.737,48.791 238.5,47.5C 233.5,47.5 228.5,47.5 223.5,47.5C 223.5,47.1667 223.5,46.8333 223.5,46.5C 225.833,44.8333 227.833,42.8333 229.5,40.5C 233.771,37.8991 237.437,34.5658 240.5,30.5C 244.436,28.2343 247.769,25.2343 250.5,21.5C 254.436,19.2343 257.769,16.2343 260.5,12.5C 263.089,11.5806 265.089,9.91395 266.5,7.5 Z"/></g>
<g><path style="opacity:0.659" fill="#244369" d="M 270.5,7.5 C 272.262,8.26231 273.262,9.59565 273.5,11.5C 271.738,10.7377 270.738,9.40435 270.5,7.5 Z"/></g>
<g><path style="opacity:0.855" fill="#326199" d="M 266.5,7.5 C 265.089,9.91395 263.089,11.5806 260.5,12.5C 261.911,10.086 263.911,8.41938 266.5,7.5 Z"/></g>
<g><path style="opacity:0.804" fill="#294e7b" d="M 273.5,11.5 C 275.262,12.2623 276.262,13.5956 276.5,15.5C 274.738,14.7377 273.738,13.4044 273.5,11.5 Z"/></g>
<g><path style="opacity:0.529" fill="#24456d" d="M 260.5,12.5 C 257.769,16.2343 254.436,19.2343 250.5,21.5C 253.231,17.7657 256.564,14.7657 260.5,12.5 Z"/></g>
<g><path style="opacity:0.608" fill="#274a73" d="M 276.5,15.5 C 278.262,16.2623 279.262,17.5956 279.5,19.5C 277.738,18.7377 276.738,17.4044 276.5,15.5 Z"/></g>
<g><path style="opacity:0.565" fill="#23436a" d="M 279.5,19.5 C 281.262,20.2623 282.262,21.5956 282.5,23.5C 280.738,22.7377 279.738,21.4044 279.5,19.5 Z"/></g>
<g><path style="opacity:0.557" fill="#26476f" d="M 250.5,21.5 C 247.769,25.2343 244.436,28.2343 240.5,30.5C 243.231,26.7657 246.564,23.7657 250.5,21.5 Z"/></g>
<g><path style="opacity:0.557" fill="#234166" d="M 282.5,23.5 C 284.262,24.2623 285.262,25.5956 285.5,27.5C 283.738,26.7377 282.738,25.4044 282.5,23.5 Z"/></g>
<g><path style="opacity:0.573" fill="#24446a" d="M 285.5,27.5 C 287.262,28.2623 288.262,29.5956 288.5,31.5C 286.738,30.7377 285.738,29.4044 285.5,27.5 Z"/></g>
<g><path style="opacity:0.761" fill="#274a75" d="M 288.5,31.5 C 290.262,32.2623 291.262,33.5956 291.5,35.5C 289.738,34.7377 288.738,33.4044 288.5,31.5 Z"/></g>
<g><path style="opacity:0.796" fill="#294e7b" d="M 291.5,35.5 C 293.262,36.2623 294.262,37.5956 294.5,39.5C 292.738,38.7377 291.738,37.4044 291.5,35.5 Z"/></g>
<g><path style="opacity:0.745" fill="#2c5280" d="M 240.5,30.5 C 237.437,34.5658 233.771,37.8991 229.5,40.5C 232.563,36.4342 236.229,33.1009 240.5,30.5 Z"/></g>
<g><path style="opacity:0.361" fill="#1c3b60" d="M 294.5,39.5 C 296.587,40.5846 297.92,42.2512 298.5,44.5C 296.413,43.4154 295.08,41.7488 294.5,39.5 Z"/></g>
<g><path style="opacity:0.537" fill="#1d3a5c" d="M 229.5,40.5 C 227.833,42.8333 225.833,44.8333 223.5,46.5C 224.5,43.5 226.5,41.5 229.5,40.5 Z"/></g>
<g><path style="opacity:0.569" fill="#556271" d="M 56.5,56.5 C 54.8993,53.4498 53.8993,50.1165 53.5,46.5C 36.5,46.5 19.5,46.5 2.5,46.5C 2.5,47.8333 2.5,49.1667 2.5,50.5C 1.54885,49.0813 1.21552,47.4147 1.5,45.5C 19.1667,45.5 36.8333,45.5 54.5,45.5C 55.3255,49.1359 55.9922,52.8026 56.5,56.5 Z"/></g>
<g><path style="opacity:0.569" fill="#586473" d="M 171.5,46.5 C 154.5,46.5 137.5,46.5 120.5,46.5C 120.598,48.5529 119.931,50.2196 118.5,51.5C 118.833,49.5 119.167,47.5 119.5,45.5C 137.008,45.17 154.341,45.5033 171.5,46.5 Z"/></g>
<g><path style="opacity:1" fill="#e7e7e8" d="M 56.5,56.5 C 57.7682,58.9052 58.4349,61.5718 58.5,64.5C 58.4203,67.7814 59.087,70.7814 60.5,73.5C 61.7682,75.9052 62.4349,78.5718 62.5,81.5C 62.7402,86.1201 63.7402,90.4535 65.5,94.5C 67.1016,98.2393 68.1016,102.239 68.5,106.5C 68.4203,109.781 69.087,112.781 70.5,115.5C 71.7682,117.905 72.4349,120.572 72.5,123.5C 72.4203,126.781 73.087,129.781 74.5,132.5C 75.7682,134.905 76.4349,137.572 76.5,140.5C 76.7402,145.12 77.7402,149.453 79.5,153.5C 80.4345,154.568 80.7678,155.901 80.5,157.5C 80.7402,162.12 81.7402,166.453 83.5,170.5C 84.1667,171.833 84.8333,173.167 85.5,174.5C 87.0739,172.898 87.7406,170.898 87.5,168.5C 87.366,166.708 87.6993,165.042 88.5,163.5C 90.4098,160.548 91.4098,157.214 91.5,153.5C 91.366,151.708 91.6993,150.042 92.5,148.5C 94.4098,145.548 95.4098,142.214 95.5,138.5C 97.0395,136.162 97.7062,133.495 97.5,130.5C 97.5,130.167 97.5,129.833 97.5,129.5C 99.0739,127.898 99.7406,125.898 99.5,123.5C 99.6997,120.37 100.366,117.37 101.5,114.5C 103.074,112.898 103.741,110.898 103.5,108.5C 103.7,105.37 104.366,102.37 105.5,99.5C 107.074,97.8984 107.741,95.8984 107.5,93.5C 107.7,90.3704 108.366,87.3704 109.5,84.5C 111.074,82.8984 111.741,80.8984 111.5,78.5C 111.366,76.7085 111.699,75.0418 112.5,73.5C 114.812,69.2171 116.145,64.5505 116.5,59.5C 116.5,59.1667 116.5,58.8333 116.5,58.5C 118.074,56.8984 118.741,54.8984 118.5,52.5C 118.5,52.1667 118.5,51.8333 118.5,51.5C 119.931,50.2196 120.598,48.5529 120.5,46.5C 137.5,46.5 154.5,46.5 171.5,46.5C 171.259,48.8984 171.926,50.8984 173.5,52.5C 173.5,52.8333 173.5,53.1667 173.5,53.5C 173.259,55.8984 173.926,57.8984 175.5,59.5C 176.301,61.0418 176.634,62.7085 176.5,64.5C 176.259,66.8984 176.926,68.8984 178.5,70.5C 179.301,72.0418 179.634,73.7085 179.5,75.5C 179.259,77.8984 179.926,79.8984 181.5,81.5C 182.301,83.0418 182.634,84.7085 182.5,86.5C 182.59,90.2142 183.59,93.5475 185.5,96.5C 185.5,96.8333 185.5,97.1667 185.5,97.5C 185.855,102.55 187.188,107.217 189.5,111.5C 190.301,113.042 190.634,114.708 190.5,116.5C 190.259,118.898 190.926,120.898 192.5,122.5C 192.5,122.833 192.5,123.167 192.5,123.5C 193.053,128.806 194.386,133.806 196.5,138.5C 196.259,140.898 196.926,142.898 198.5,144.5C 199.301,146.042 199.634,147.708 199.5,149.5C 199.259,151.898 199.926,153.898 201.5,155.5C 202.301,157.042 202.634,158.708 202.5,160.5C 202.259,162.898 202.926,164.898 204.5,166.5C 205.634,169.37 206.3,172.37 206.5,175.5C 203.399,191.426 199.232,207.093 194,222.5C 184.807,206.77 175.64,191.104 166.5,175.5C 166.446,173.368 165.446,172.035 163.5,171.5C 162.662,171.158 162.328,170.492 162.5,169.5C 162.59,166.848 161.924,164.515 160.5,162.5C 160.59,159.848 159.924,157.515 158.5,155.5C 157.596,154.791 157.263,153.791 157.5,152.5C 157.59,149.848 156.924,147.515 155.5,145.5C 155.59,142.848 154.924,140.515 153.5,138.5C 151.899,135.45 150.899,132.116 150.5,128.5C 150.59,125.848 149.924,123.515 148.5,121.5C 148.59,118.848 147.924,116.515 146.5,114.5C 145.833,110.5 145.167,110.5 144.5,114.5C 144.737,115.791 144.404,116.791 143.5,117.5C 142.076,119.515 141.41,121.848 141.5,124.5C 140.076,126.515 139.41,128.848 139.5,131.5C 139.737,132.791 139.404,133.791 138.5,134.5C 137.076,136.515 136.41,138.848 136.5,141.5C 135.076,143.515 134.41,145.848 134.5,148.5C 133.076,150.515 132.41,152.848 132.5,155.5C 131.076,157.515 130.41,159.848 130.5,162.5C 130.737,163.791 130.404,164.791 129.5,165.5C 128.076,167.515 127.41,169.848 127.5,172.5C 126.076,174.515 125.41,176.848 125.5,179.5C 123.723,182.505 122.723,185.838 122.5,189.5C 121.076,191.515 120.41,193.848 120.5,196.5C 119.076,198.515 118.41,200.848 118.5,203.5C 118.737,204.791 118.404,205.791 117.5,206.5C 116.076,208.515 115.41,210.848 115.5,213.5C 114.076,215.515 113.41,217.848 113.5,220.5C 112.076,222.515 111.41,224.848 111.5,227.5C 111.737,228.791 111.404,229.791 110.5,230.5C 109.076,232.515 108.41,234.848 108.5,237.5C 107.076,239.515 106.41,241.848 106.5,244.5C 90.1667,244.5 73.8333,244.5 57.5,244.5C 57.7373,243.209 57.404,242.209 56.5,241.5C 56.5905,238.848 55.9238,236.515 54.5,234.5C 54.5905,231.848 53.9238,229.515 52.5,227.5C 52.5905,224.848 51.9238,222.515 50.5,220.5C 50.5905,217.848 49.9238,215.515 48.5,213.5C 48.5905,210.848 47.9238,208.515 46.5,206.5C 44.2313,200.769 42.5646,194.769 41.5,188.5C 41.5905,185.848 40.9238,183.515 39.5,181.5C 39.5905,178.848 38.9238,176.515 37.5,174.5C 37.5905,171.848 36.9238,169.515 35.5,167.5C 35.5905,164.848 34.9238,162.515 33.5,160.5C 33.5905,157.848 32.9238,155.515 31.5,153.5C 31.5905,150.848 30.9238,148.515 29.5,146.5C 29.5905,143.848 28.9238,141.515 27.5,139.5C 27.5905,136.848 26.9238,134.515 25.5,132.5C 23.9257,129.093 22.9257,125.427 22.5,121.5C 22.5905,118.848 21.9238,116.515 20.5,114.5C 20.5905,111.848 19.9238,109.515 18.5,107.5C 18.5905,104.848 17.9238,102.515 16.5,100.5C 16.5905,97.8478 15.9238,95.5145 14.5,93.5C 14.5905,90.8478 13.9238,88.5145 12.5,86.5C 12.5905,83.8478 11.9238,81.5145 10.5,79.5C 10.5905,76.8478 9.92381,74.5145 8.5,72.5C 8.59047,69.8478 7.92381,67.5145 6.5,65.5C 5.56552,64.4324 5.23219,63.099 5.5,61.5C 5.59047,58.8478 4.92381,56.5145 3.5,54.5C 2.56552,53.4324 2.23219,52.099 2.5,50.5C 2.5,49.1667 2.5,47.8333 2.5,46.5C 19.5,46.5 36.5,46.5 53.5,46.5C 53.8993,50.1165 54.8993,53.4498 56.5,56.5 Z"/></g>
<g><path style="opacity:0.701" fill="#497ab5" d="M 223.5,47.5 C 228.5,47.5 233.5,47.5 238.5,47.5C 238.737,48.791 238.404,49.791 237.5,50.5C 233.087,48.8616 228.421,47.8616 223.5,47.5 Z"/></g>
<g><path style="opacity:0.827" fill="#485365" d="M 171.5,46.5 C 172.738,48.2143 173.405,50.2143 173.5,52.5C 171.926,50.8984 171.259,48.8984 171.5,46.5 Z"/></g>
<g><path style="opacity:0.506" fill="#24446b" d="M 298.5,44.5 C 300.213,45.6354 300.88,47.302 300.5,49.5C 296.5,49.5 292.5,49.5 288.5,49.5C 288.416,53.8371 287.416,57.8371 285.5,61.5C 286.327,57.1928 286.993,52.8595 287.5,48.5C 291.555,48.8242 295.555,48.4909 299.5,47.5C 298.873,46.5832 298.539,45.5832 298.5,44.5 Z"/></g>
<g><path style="opacity:0.788" fill="#434e60" d="M 118.5,52.5 C 118.741,54.8984 118.074,56.8984 116.5,58.5C 116.595,56.2143 117.262,54.2143 118.5,52.5 Z"/></g>
<g><path style="opacity:0.773" fill="#3f4b5e" d="M 173.5,53.5 C 174.738,55.2143 175.405,57.2143 175.5,59.5C 173.926,57.8984 173.259,55.8984 173.5,53.5 Z"/></g>
<g><path style="opacity:0.22" fill="#273549" d="M 3.5,54.5 C 4.92381,56.5145 5.59047,58.8478 5.5,61.5C 4.07619,59.4855 3.40953,57.1522 3.5,54.5 Z"/></g>
<g><path style="opacity:0.827" fill="#2b5383" d="M 235.5,58.5 C 235.26,63.1201 234.26,67.4535 232.5,71.5C 232.74,66.8799 233.74,62.5465 235.5,58.5 Z"/></g>
<g><path style="opacity:0.953" fill="#4c5768" d="M 116.5,59.5 C 116.145,64.5505 114.812,69.2171 112.5,73.5C 113.261,68.5634 114.595,63.8967 116.5,59.5 Z"/></g>
<g><path style="opacity:0.812" fill="#465264" d="M 176.5,64.5 C 177.738,66.2143 178.405,68.2143 178.5,70.5C 176.926,68.8984 176.259,66.8984 176.5,64.5 Z"/></g>
<g><path style="opacity:0.22" fill="#233147" d="M 6.5,65.5 C 7.92381,67.5145 8.59047,69.8478 8.5,72.5C 7.07619,70.4855 6.40953,68.1522 6.5,65.5 Z"/></g>
<g><path style="opacity:0.812" fill="#4c5769" d="M 58.5,64.5 C 59.913,67.2186 60.5797,70.2186 60.5,73.5C 59.087,70.7814 58.4203,67.7814 58.5,64.5 Z"/></g>
<g><path style="opacity:0.22" fill="#253348" d="M 8.5,72.5 C 9.92381,74.5145 10.5905,76.8478 10.5,79.5C 9.07619,77.4855 8.40953,75.1522 8.5,72.5 Z"/></g>
<g><path style="opacity:0.804" fill="#455063" d="M 179.5,75.5 C 180.738,77.2143 181.405,79.2143 181.5,81.5C 179.926,79.8984 179.259,77.8984 179.5,75.5 Z"/></g>
<g><path style="opacity:0.224" fill="#273349" d="M 10.5,79.5 C 11.9238,81.5145 12.5905,83.8478 12.5,86.5C 11.0762,84.4855 10.4095,82.1522 10.5,79.5 Z"/></g>
<g><path style="opacity:0.804" fill="#445061" d="M 111.5,78.5 C 111.741,80.8984 111.074,82.8984 109.5,84.5C 109.595,82.2143 110.262,80.2143 111.5,78.5 Z"/></g>
<g><path style="opacity:0.843" fill="#4a5667" d="M 62.5,81.5 C 64.2598,85.5465 65.2598,89.8799 65.5,94.5C 63.7402,90.4535 62.7402,86.1201 62.5,81.5 Z"/></g>
<g><path style="opacity:0.22" fill="#27354a" d="M 12.5,86.5 C 13.9238,88.5145 14.5905,90.8478 14.5,93.5C 13.0762,91.4855 12.4095,89.1522 12.5,86.5 Z"/></g>
<g><path style="opacity:0.757" fill="#3e4a5d" d="M 182.5,86.5 C 184.101,89.5502 185.101,92.8835 185.5,96.5C 183.59,93.5475 182.59,90.2142 182.5,86.5 Z"/></g>
<g><path style="opacity:0.82" fill="#2c5484" d="M 228.5,87.5 C 228.58,90.7814 227.913,93.7814 226.5,96.5C 226.42,93.2186 227.087,90.2186 228.5,87.5 Z"/></g>
<g><path style="opacity:0.22" fill="#28364a" d="M 14.5,93.5 C 15.9238,95.5145 16.5905,97.8478 16.5,100.5C 15.0762,98.4855 14.4095,96.1522 14.5,93.5 Z"/></g>
<g><path style="opacity:0.804" fill="#455163" d="M 107.5,93.5 C 107.741,95.8984 107.074,97.8984 105.5,99.5C 105.595,97.2143 106.262,95.2143 107.5,93.5 Z"/></g>
<g><path style="opacity:0.945" fill="#4b5667" d="M 185.5,97.5 C 187.405,101.897 188.739,106.563 189.5,111.5C 187.188,107.217 185.855,102.55 185.5,97.5 Z"/></g>
<g><path style="opacity:0.22" fill="#29374c" d="M 16.5,100.5 C 17.9238,102.515 18.5905,104.848 18.5,107.5C 17.0762,105.485 16.4095,103.152 16.5,100.5 Z"/></g>
<g><path style="opacity:0.212" fill="#2a394d" d="M 18.5,107.5 C 19.9238,109.515 20.5905,111.848 20.5,114.5C 19.0762,112.485 18.4095,110.152 18.5,107.5 Z"/></g>
<g><path style="opacity:0.796" fill="#495565" d="M 68.5,106.5 C 69.913,109.219 70.5797,112.219 70.5,115.5C 69.087,112.781 68.4203,109.781 68.5,106.5 Z"/></g>
<g><path style="opacity:0.812" fill="#475164" d="M 103.5,108.5 C 103.741,110.898 103.074,112.898 101.5,114.5C 101.595,112.214 102.262,110.214 103.5,108.5 Z"/></g>
<g><path style="opacity:0.275" fill="#263449" d="M 146.5,114.5 C 145.833,114.5 145.167,114.5 144.5,114.5C 145.167,110.5 145.833,110.5 146.5,114.5 Z"/></g>
<g><path style="opacity:0.22" fill="#243247" d="M 146.5,114.5 C 147.924,116.515 148.59,118.848 148.5,121.5C 147.076,119.485 146.41,117.152 146.5,114.5 Z"/></g>
<g><path style="opacity:0.22" fill="#2c394d" d="M 20.5,114.5 C 21.9238,116.515 22.5905,118.848 22.5,121.5C 21.0762,119.485 20.4095,117.152 20.5,114.5 Z"/></g>
<g><path style="opacity:0.804" fill="#445062" d="M 190.5,116.5 C 191.738,118.214 192.405,120.214 192.5,122.5C 190.926,120.898 190.259,118.898 190.5,116.5 Z"/></g>
<g><path style="opacity:0.22" fill="#243247" d="M 143.5,117.5 C 143.59,120.152 142.924,122.485 141.5,124.5C 141.41,121.848 142.076,119.515 143.5,117.5 Z"/></g>
<g><path style="opacity:0.216" fill="#213046" d="M 148.5,121.5 C 149.924,123.515 150.59,125.848 150.5,128.5C 149.076,126.485 148.41,124.152 148.5,121.5 Z"/></g>
<g><path style="opacity:0.82" fill="#475164" d="M 99.5,123.5 C 99.7406,125.898 99.0739,127.898 97.5,129.5C 97.595,127.214 98.2616,125.214 99.5,123.5 Z"/></g>
<g><path style="opacity:0.22" fill="#212f44" d="M 141.5,124.5 C 141.59,127.152 140.924,129.485 139.5,131.5C 139.41,128.848 140.076,126.515 141.5,124.5 Z"/></g>
<g><path style="opacity:0.82" fill="#4e586a" d="M 72.5,123.5 C 73.913,126.219 74.5797,129.219 74.5,132.5C 73.087,129.781 72.4203,126.781 72.5,123.5 Z"/></g>
<g><path style="opacity:0.953" fill="#505a6c" d="M 192.5,123.5 C 194.591,128.191 195.924,133.191 196.5,138.5C 194.386,133.806 193.053,128.806 192.5,123.5 Z"/></g>
<g><path style="opacity:0.796" fill="#2d5585" d="M 221.5,116.5 C 220.927,122.455 219.593,128.122 217.5,133.5C 218.073,127.545 219.407,121.878 221.5,116.5 Z"/></g>
<g><path style="opacity:0.22" fill="#212f44" d="M 25.5,132.5 C 26.9238,134.515 27.5905,136.848 27.5,139.5C 26.0762,137.485 25.4095,135.152 25.5,132.5 Z"/></g>
<g><path style="opacity:0.929" fill="#5b6574" d="M 97.5,130.5 C 97.7062,133.495 97.0395,136.162 95.5,138.5C 95.5651,135.572 96.2318,132.905 97.5,130.5 Z"/></g>
<g><path style="opacity:0.22" fill="#2c394e" d="M 138.5,134.5 C 138.59,137.152 137.924,139.485 136.5,141.5C 136.41,138.848 137.076,136.515 138.5,134.5 Z"/></g>
<g><path style="opacity:0.22" fill="#233146" d="M 27.5,139.5 C 28.9238,141.515 29.5905,143.848 29.5,146.5C 28.0762,144.485 27.4095,142.152 27.5,139.5 Z"/></g>
<g><path style="opacity:0.804" fill="#455062" d="M 95.5,138.5 C 95.4098,142.214 94.4098,145.548 92.5,148.5C 92.8993,144.884 93.8993,141.55 95.5,138.5 Z"/></g>
<g><path style="opacity:0.22" fill="#29364b" d="M 153.5,138.5 C 154.924,140.515 155.59,142.848 155.5,145.5C 154.076,143.485 153.41,141.152 153.5,138.5 Z"/></g>
<g><path style="opacity:0.78" fill="#404c5e" d="M 196.5,138.5 C 197.738,140.214 198.405,142.214 198.5,144.5C 196.926,142.898 196.259,140.898 196.5,138.5 Z"/></g>
<g><path style="opacity:0.843" fill="#4a5566" d="M 76.5,140.5 C 78.2598,144.547 79.2598,148.88 79.5,153.5C 77.7402,149.453 76.7402,145.12 76.5,140.5 Z"/></g>
<g><path style="opacity:0.22" fill="#29364c" d="M 136.5,141.5 C 136.59,144.152 135.924,146.485 134.5,148.5C 134.41,145.848 135.076,143.515 136.5,141.5 Z"/></g>
<g><path style="opacity:0.22" fill="#253248" d="M 155.5,145.5 C 156.924,147.515 157.59,149.848 157.5,152.5C 156.076,150.485 155.41,148.152 155.5,145.5 Z"/></g>
<g><path style="opacity:0.22" fill="#253247" d="M 29.5,146.5 C 30.9238,148.515 31.5905,150.848 31.5,153.5C 30.0762,151.485 29.4095,149.152 29.5,146.5 Z"/></g>
<g><path style="opacity:0.22" fill="#263349" d="M 134.5,148.5 C 134.59,151.152 133.924,153.485 132.5,155.5C 132.41,152.848 133.076,150.515 134.5,148.5 Z"/></g>
<g><path style="opacity:0.78" fill="#414d5e" d="M 199.5,149.5 C 200.738,151.214 201.405,153.214 201.5,155.5C 199.926,153.898 199.259,151.898 199.5,149.5 Z"/></g>
<g><path style="opacity:0.22" fill="#26334a" d="M 31.5,153.5 C 32.9238,155.515 33.5905,157.848 33.5,160.5C 32.0762,158.485 31.4095,156.152 31.5,153.5 Z"/></g>
<g><path style="opacity:0.78" fill="#424d60" d="M 91.5,153.5 C 91.4098,157.214 90.4098,160.548 88.5,163.5C 88.8993,159.884 89.8993,156.55 91.5,153.5 Z"/></g>
<g><path style="opacity:0.22" fill="#223047" d="M 132.5,155.5 C 132.59,158.152 131.924,160.485 130.5,162.5C 130.41,159.848 131.076,157.515 132.5,155.5 Z"/></g>
<g><path style="opacity:0.22" fill="#2d3a4e" d="M 158.5,155.5 C 159.924,157.515 160.59,159.848 160.5,162.5C 159.076,160.485 158.41,158.152 158.5,155.5 Z"/></g>
<g><path style="opacity:0.859" fill="#4c5768" d="M 80.5,157.5 C 82.2598,161.547 83.2598,165.88 83.5,170.5C 81.7402,166.453 80.7402,162.12 80.5,157.5 Z"/></g>
<g><path style="opacity:0.827" fill="#2b5281" d="M 211.5,157.5 C 211.26,162.12 210.26,166.453 208.5,170.5C 208.74,165.88 209.74,161.547 211.5,157.5 Z"/></g>
<g><path style="opacity:0.22" fill="#28354a" d="M 33.5,160.5 C 34.9238,162.515 35.5905,164.848 35.5,167.5C 34.0762,165.485 33.4095,163.152 33.5,160.5 Z"/></g>
<g><path style="opacity:0.788" fill="#434e60" d="M 202.5,160.5 C 203.738,162.214 204.405,164.214 204.5,166.5C 202.926,164.898 202.259,162.898 202.5,160.5 Z"/></g>
<g><path style="opacity:0.22" fill="#27354a" d="M 160.5,162.5 C 161.924,164.515 162.59,166.848 162.5,169.5C 161.076,167.485 160.41,165.152 160.5,162.5 Z"/></g>
<g><path style="opacity:0.22" fill="#2b384e" d="M 129.5,165.5 C 129.59,168.152 128.924,170.485 127.5,172.5C 127.41,169.848 128.076,167.515 129.5,165.5 Z"/></g>
<g><path style="opacity:0.22" fill="#29364c" d="M 35.5,167.5 C 36.9238,169.515 37.5905,171.848 37.5,174.5C 36.0762,172.485 35.4095,170.152 35.5,167.5 Z"/></g>
<g><path style="opacity:0.659" fill="#24466f" d="M 255.5,168.5 C 253.612,176.405 251.279,184.072 248.5,191.5C 250.015,184.108 251.848,176.774 254,169.5C 254.383,168.944 254.883,168.611 255.5,168.5 Z"/></g>
<g><path style="opacity:0.757" fill="#3e4b5d" d="M 87.5,168.5 C 87.7406,170.898 87.0739,172.898 85.5,174.5C 85.595,172.214 86.2616,170.214 87.5,168.5 Z"/></g>
<g><path style="opacity:1" fill="#3371bf" d="M 163.5,171.5 C 165.446,172.035 166.446,173.368 166.5,175.5C 165.742,177.981 165.742,180.648 166.5,183.5C 164.308,179.902 163.308,175.902 163.5,171.5 Z"/></g>
<g><path style="opacity:0.22" fill="#263448" d="M 127.5,172.5 C 127.59,175.152 126.924,177.485 125.5,179.5C 125.41,176.848 126.076,174.515 127.5,172.5 Z"/></g>
<g><path style="opacity:0.22" fill="#2b384c" d="M 37.5,174.5 C 38.9238,176.515 39.5905,178.848 39.5,181.5C 38.0762,179.485 37.4095,177.152 37.5,174.5 Z"/></g>
<g><path style="opacity:0.22" fill="#2a374b" d="M 125.5,179.5 C 125.277,183.162 124.277,186.495 122.5,189.5C 122.723,185.838 123.723,182.505 125.5,179.5 Z"/></g>
<g><path style="opacity:0.22" fill="#2c394d" d="M 39.5,181.5 C 40.9238,183.515 41.5905,185.848 41.5,188.5C 40.0762,186.485 39.4095,184.152 39.5,181.5 Z"/></g>
<g><path style="opacity:0.251" fill="#1a375b" d="M 167.5,186.5 C 168.924,188.515 169.59,190.848 169.5,193.5C 168.076,191.485 167.41,189.152 167.5,186.5 Z"/></g>
<g><path style="opacity:0.22" fill="#27364a" d="M 122.5,189.5 C 122.59,192.152 121.924,194.485 120.5,196.5C 120.41,193.848 121.076,191.515 122.5,189.5 Z"/></g>
<g><path style="opacity:0.6" fill="#24456d" d="M 248.5,192.5 C 248.405,194.786 247.738,196.786 246.5,198.5C 246.259,196.102 246.926,194.102 248.5,192.5 Z"/></g>
<g><path style="opacity:0.573" fill="#25466f" d="M 169.5,194.5 C 171.472,197.084 172.472,200.084 172.5,203.5C 170.928,200.785 169.928,197.785 169.5,194.5 Z"/></g>
<g><path style="opacity:0.22" fill="#233146" d="M 120.5,196.5 C 120.59,199.152 119.924,201.485 118.5,203.5C 118.41,200.848 119.076,198.515 120.5,196.5 Z"/></g>
<g><path style="opacity:0.251" fill="#193658" d="M 246.5,198.5 C 246.59,201.152 245.924,203.485 244.5,205.5C 244.41,202.848 245.076,200.515 246.5,198.5 Z"/></g>
<g><path style="opacity:0.22" fill="#223045" d="M 46.5,206.5 C 47.9238,208.515 48.5905,210.848 48.5,213.5C 47.0762,211.485 46.4095,209.152 46.5,206.5 Z"/></g>
<g><path style="opacity:0.22" fill="#2b384d" d="M 117.5,206.5 C 117.59,209.152 116.924,211.485 115.5,213.5C 115.41,210.848 116.076,208.515 117.5,206.5 Z"/></g>
<g><path style="opacity:0.608" fill="#254771" d="M 244.5,206.5 C 244.405,208.786 243.738,210.786 242.5,212.5C 242.259,210.102 242.926,208.102 244.5,206.5 Z"/></g>
<g><path style="opacity:0.251" fill="#1a3759" d="M 174.5,210.5 C 175.924,212.515 176.59,214.848 176.5,217.5C 175.076,215.485 174.41,213.152 174.5,210.5 Z"/></g>
<g><path style="opacity:0.22" fill="#243147" d="M 48.5,213.5 C 49.9238,215.515 50.5905,217.848 50.5,220.5C 49.0762,218.485 48.4095,216.152 48.5,213.5 Z"/></g>
<g><path style="opacity:0.212" fill="#263449" d="M 115.5,213.5 C 115.59,216.152 114.924,218.485 113.5,220.5C 113.41,217.848 114.076,215.515 115.5,213.5 Z"/></g>
<g><path style="opacity:0.616" fill="#264972" d="M 242.5,213.5 C 242.405,215.786 241.738,217.786 240.5,219.5C 240.259,217.102 240.926,215.102 242.5,213.5 Z"/></g>
<g><path style="opacity:0.247" fill="#193456" d="M 176.5,217.5 C 177.924,219.515 178.59,221.848 178.5,224.5C 177.076,222.485 176.41,220.152 176.5,217.5 Z"/></g>
<g><path style="opacity:0.22" fill="#222f44" d="M 113.5,220.5 C 113.59,223.152 112.924,225.485 111.5,227.5C 111.41,224.848 112.076,222.515 113.5,220.5 Z"/></g>
<g><path style="opacity:0.22" fill="#253248" d="M 50.5,220.5 C 51.9238,222.515 52.5905,224.848 52.5,227.5C 51.0762,225.485 50.4095,223.152 50.5,220.5 Z"/></g>
<g><path style="opacity:0.22" fill="#273449" d="M 52.5,227.5 C 53.9238,229.515 54.5905,231.848 54.5,234.5C 53.0762,232.485 52.4095,230.152 52.5,227.5 Z"/></g>
<g><path style="opacity:0.212" fill="#29374c" d="M 110.5,230.5 C 110.59,233.152 109.924,235.485 108.5,237.5C 108.41,234.848 109.076,232.515 110.5,230.5 Z"/></g>
<g><path style="opacity:0.247" fill="#183455" d="M 181.5,234.5 C 182.924,236.515 183.59,238.848 183.5,241.5C 182.076,239.485 181.41,237.152 181.5,234.5 Z"/></g>
<g><path style="opacity:0.22" fill="#28364a" d="M 54.5,234.5 C 55.9238,236.515 56.5905,238.848 56.5,241.5C 55.0762,239.485 54.4095,237.152 54.5,234.5 Z"/></g>
<g><path style="opacity:0.22" fill="#253248" d="M 108.5,237.5 C 108.59,240.152 107.924,242.485 106.5,244.5C 106.41,241.848 107.076,239.515 108.5,237.5 Z"/></g>
<g><path style="opacity:0.282" fill="#11263b" d="M 56.5,241.5 C 57.404,242.209 57.7373,243.209 57.5,244.5C 73.8333,244.5 90.1667,244.5 106.5,244.5C 90.0084,245.497 73.3417,245.83 56.5,245.5C 56.5,244.167 56.5,242.833 56.5,241.5 Z"/></g>
</svg>
